<svg xmlns="http://www.w3.org/2000/svg" viewBox="0 0 144 155">
<!-- SVG created with Arrow, by QuiverAI (https://quiver.ai) -->
  <style type="text/css">.cls-0 {fill:#040A19;}
.cls-1 {opacity:0.6;fill:none;stroke:#377DFF;stroke-width:0.25;enable-background:new    ;}
.cls-2 {fill:url(#SVGID_1_);}
.cls-3 {fill:none;stroke:url(#SVGID_2_);stroke-width:0.5488;stroke-linecap:round;stroke-linejoin:round;stroke-miterlimit:10;}
.cls-4 {fill:none;stroke:#57B8FF;stroke-width:0.5;stroke-linecap:round;stroke-linejoin:round;stroke-miterlimit:10;}
.cls-5 {fill:#FFFFFF;stroke:url(#SVGID_3_);stroke-width:0.5488;stroke-linejoin:round;stroke-miterlimit:10;}</style>
  <line class="cls-1" x1="6,40.3" x2="138.1" y1="50.8" y2="117.3"/>
  <line class="cls-1" x1="6.1" y1="117.3" y2="40.3"/>
  <path class="cls-1" d="m34.5 24.3 73.9 107.7m-45.1-123.6 17.2 9.7m-17.2 130.4 45.9-134"/>
  <path class="cls-1" d="m56.7 11.8v132.8m30.7-132.7v132.8m-62.4-114.4v75.4m18.3-86.5v118.4"/>
  <path class="cls-1" d="m6 62.1h132m-132 30.7h131.4m-131.4-15.2h132m-122.5-42v86.1m113.2-86.1v86.1"/>
  <polyline class="cls-1" points="100.2 19.2 100.2 137.6 100.3 19.2"/>
  <path class="cls-1" d="m35.4 132.1 73.9-107.7m-103.2 26.4 74.4-42.4 28.8 16 28.7 16.2"/>
  <path class="cls-1" d="m6.1 40.3 102.2 91.7m-45 16.5 74.7-108.1"/>
  <path class="cls-1" d="m15.5 45.7 84.8-15.7 28.7 15.3"/>
  <radialGradient id="SVGID_1_" cx="71.84" cy="77.82" r="44.66" gradientUnits="userSpaceOnUse">
    <stop stop-color="#5F4BDE" offset=".5416"/>
    <stop stop-color="#514BD2" stop-opacity="0" offset=".9989"/>
  </radialGradient>
  <path class="cls-2" d="m112.9 77c0-21.5-18.3-39.8-41.2-39.7s-40.9 16.6-40.9 39.7c0 21.9 17.7 40 41 39.5 22.3-0.5 41.1-17.9 41.1-39.5z"/>
  <ellipse cx="71.9" cy="77" rx="40.6" ry="39.3" fill="none" opacity=".2" stroke="#966DED" stroke-miterlimit="10" stroke-width=".2997"/>
  <ellipse cx="71.9" cy="77" rx="38" ry="37.7" fill="none" opacity=".4" stroke="#966DED" stroke-miterlimit="10" stroke-width=".5"/>
  <ellipse cx="71.9" cy="77" rx="35.4" ry="35.4" fill="none" opacity=".6" stroke="#966DED" stroke-miterlimit="10" stroke-width=".5"/>
  <ellipse cx="71.9" cy="77" rx="32.6" ry="32.4" fill="none" opacity=".8" stroke="#966DED" stroke-miterlimit="10" stroke-width=".5"/>
  <linearGradient id="SVGID_2_" x1="15.2" x2="129" y1="77.37" y2="77.37" gradientUnits="userSpaceOnUse">
    <stop stop-color="#377DFF" offset="0"/>
    <stop stop-color="#9660DE" offset="1"/>
  </linearGradient>
  <path class="cls-3" d="m127.6 62.5-0.4-0.2-6.1 9.6-0.7 0.9-7.3 16.9 0.6 0.5 7-3.5 3.2 2.2 4.8-2.5v-23.2l-1.1-0.7zm-109.6 31.9-2.6 0.2v17.1l37.4 20.9 2.1-2.5 0.4 4.3 16.7 9.2 15.5-8.6 0.6-2.5 1.4 1.3 39.2-22.1v-22.3l-2.2-1.5-1.9 0.1 3.9 1.4-5 0.9-2.9-1.7-5.9 4-5.1-1.7-4.8 0.8-6.2 0.1-4.6-2.7h-0.1l-4.1 9.4-1.1 1.6-0.7 4-1.1 4.5-1.9 2.5-3.2 2.6 3 1.8 3.8 6.7 0.1 5.6-0.6 4.7m-72.7-87.1 9.9 5.4 6.3 12.7 0.2 0.4 0.8 0.6 6 3.5 1.2 3.7 1.5 1.9 4.4 4.6 3.2 4.7 4.2-1.3 3.3-3.1 0.5-3.1 0.5-3.8 7.2-5.7 2-4-0.1-3.7-5.3-5.5-10.5 1-12.2-3.2-10.5 2.1 2.7 6 0.3 2.7 0.8 3m14.6-36.2 0.5 3.7-3.4-1.9-28.1 15.5v44.6l5.3 1.4 4.5 2.6 5.3-0.7 4.9-0.3 1.8-0.8 5.3-0.5 3.6-0.8 5.6-3.5-1.7-4.8 2.8-0.7 3.1-3.2 0.9-3.4 1.9-1.5-0.3-3.9 3.1-2.4 3.4-1.9 1-0.5 4.6-2.2 1.7 0.2 6.5 2.9 4.7 5.3-0.4 5.1 1.3 8.3-3.6 2.4-3.1 3-3.6 2 1.1 3.4 5.4-4.4 3.3 0.7 4.6 6.9 0.2 2.9m-16.6-88.2-25.6 14.7 8.3 5.9 1.2 3.7 2.5 2 3.3 4.8 6.1 3.2 4.5-0.8 4.4-2.2 2.3-2.3 2.2-5 6.5-1.5 4.9-1.5-0.2-3.6 1.5-4.7-21.9-12.7z"/>
  <linearGradient id="SVGID_3_" x1="40.81" x2="103.3" y1="88.3" y2="67.01" gradientUnits="userSpaceOnUse">
    <stop stop-color="#718DFC" offset="0"/>
    <stop stop-color="#54BCFE" offset=".327"/>
    <stop stop-color="#fff" offset=".6183"/>
    <stop stop-color="#fff" offset=".653"/>
    <stop stop-color="#718EFC" offset=".8876"/>
  </linearGradient>
  <path class="cls-5" d="m95 86.3-5.3-1-3.8-3.4-1.4-3.9-0.9-2.6 0.5-0.7 1-0.5-0.1-4.2-1.4-3-3.4-1.4-0.5-1.2-4.3-6.6 4.4-6.1 6.8 2.2 9.6-0.9 4.4 2.7 7 1.7-19.8 11.3-0.9 4.1-1 3.2 3.7 9.1 5.4 1.2zm-23-23.3-6.9 2.9-0.8 2.3-3.7 3-0.1 3.6-1.9 1.5-0.6 3-1 3 7.3 9 3.2 0.1 4.5 2.5 3.4-2.9 2.3-0.7 0.4-0.2 2.9-2.5 3.3-2.6-1.3-8.6 0.2-4.8-4.5-5.4-6.7-3.2zm17.2 35-0.6 1-5 2.1s-5.2 2.9-11.6 3-11.1-1.8-16.1-5.1l-2.1 3.1 6.9 4.8 11.1 16.5 9.4-8.9 5.4-4.9 1.4-4.9 0.6-5.7v-1zm-40.2-5.6-2.7 1.8 2.8 5.7 0.2 2.9-1.8 3.8-1.1 4.7 6 13.1 0.4 8.2 2.2-2.7-0.4-4.5-6-13.7 0.9-2.9 1.5-2.9 1.6-2.2 0.4-1.1-0.8-2.3-1.7-5-1.9-3.2h0.4zm39.2 40.3 0.7 0.6 1 0.3 0.5-7.4 0.6-4.6-1.9-4.5-0.6-2-0.7-1.3 2.7-5.9 1-4.9 2.9-4.3 3.6-6.8-4-2.8-3.5 8.5-1 0.8-0.9 2.9 0.1 1.5-0.9 5.4-2.8 3.1-0.4 4 3.9 6.8 0.2 5.7-0.5 4.9zm9.9-47.7-1.5 1.4h-1.9l3.4 3.9 1.4-2.3 1.8-4.4 0.3-4.7-0.1-4.5-1.3 5.3-0.6 2.9-1.5 2.4z"/>
  <radialGradient id="SVGID_4_" cx="71.82" cy="77.45" r="46.04" gradientUnits="userSpaceOnUse">
    <stop stop-color="#4A39CD" offset=".4792"/>
    <stop stop-color="#040A19" stop-opacity="0" offset=".9057"/>
  </radialGradient>
  <path d="m117.7 79c0-26.6-21-48.2-45.7-48.2s-44.9 20.7-44.9 46.2c0 25.6 19.8 46.7 44.9 47.1 25.1 0.5 45.7-20 45.7-45.1z" fill="url(#SVGID_4_)"/>
  <path class="cls-4" d="m25.3 50.8 12.7-3.1 13.5 1.6 9.4-2.3 6.9 3.5 7.6-0.6 3.6-2.9 3.2-6.1 1.4-0.6 2.9 0.6 1-1.8 6.4-3.2 0.5-3.5-0.5-6.4 2.5 5.4 0.1-1.4-0.1 4.8-2.4 1.1-2.8 0.8-4.7 0.9-5.4-0.2-1.5 4-2.2 3-3.4 1.5-2.7 1.1-3.6 0.6 0.1 4-6.7-2.3-0.4 2.9 1.3-0.5 4.5-1.2 1.5 1.1 3.5-0.7 3.9-0.8 7.2 1.5 3.7 2.3-3.6-2.6-0.8-4.7 1.3-4.2 3.1-1.1 0.6-0.9 1.6-1.8 5.4-2.7 2.5-4.6 4-1.3 28.3 15.4v14.2l-7.6 12.3-9.6 17.2 0.4 0.2-1-0.2-3.9-0.7-2.6 0.7-3-0.7-7.4 0.7h-0.4l-4.4 8.5-5.2 3.4-5.6 1.8-6.4 1.3-7-0.7-5-1.5-6.1-3.9-5.3-5.9-6.1-0.4-5.7 0.5-3.4 2.4-4.7 1.7-3.8 0.4-4.7-2.3h-4.8l5.3-3.1 4.4 2.6 5.6-0.8 4.7-0.1 2.2-0.8 4.9-0.5 4.4-1.2 4.8-3.1-1.7-4.8 3.1-0.7 2.7-3.2 0.8-3.3-0.5-3.7-1.5-3.8-26.6-15.3 7.9-1.5 2.7-0.6 3.3 0.2-3.5-3.1 2.9 0.1 10.3 1.6 3-0.6 6.1-1.7-4.1-7.3-3.5-1.8-1.2-3-8.4-4.9-28 15.4"/>
  <path class="cls-4" d="m15.5 111.7 33.2-19.1-2.6 1.8-13.3 0.2 8.2 0.4 5.1-0.6 2.9-2h-6l4.9 4.7 1.4 5.3-1.8 4-1.2 4.9 6.2 12.8 0.3 8.5"/>
  <path class="cls-4" d="m84.4 115.5-2.5 1.6-4.9 5.6-5 4-5.1-5.8-4.5-7.2-1.7-1.1-3.3-1.3-5.1-7.3-1.4 2.1-1.3 2.9-1 2.7 6 13.7 0.8 9"/>
  <path class="cls-4" d="m72 143.6v-16.9m0-3.4v-60.3"/>
  <path class="cls-4" d="m85.5 115.3-1.1 0.2-2 1"/>
  <path class="cls-4" d="m88.6 101.6 3.9-6.3"/>
  <path class="cls-4" d="m56.8 97.1 3.2-3.2 2.5-1.5 3.9 1.2 5.5 4.3 6.3-5.1 5.6-1-1.9-0.8-1.9-0.3-4.1 0.6-4 2.7-4.1-2.4h-2.8l-2.5 0.8"/>
  <path class="cls-4" d="m53.9 101.9 2.5-4.3"/>
  <path class="cls-4" d="m60.7 111.9-2.1-5.8"/>
  <path class="cls-4" d="m54.6 68 10.2-5 1.8-4.8"/>
  <path class="cls-4" d="m75.4 57.6 4.4 6.8 1.7 1.5 6.3 3 20-11.5"/>
  <path class="cls-4" d="m84.5 67.4 1 2.6-1 4.6 5.1 10.3"/>
  <path class="cls-4" d="m128.7 111.7-34.7-22.6"/>
  <line class="cls-4" x1="72" x2="59.6" y1="77.7" y2="85.3"/>
  <line class="cls-4" x1="72" x2="84" y1="77.7" y2="84.9"/>
  <line class="cls-4" x1="72" x2="82.9" y1="77.7" y2="71.6"/>
  <path class="cls-4" d="m61.1 71.2 10.9 6.5"/>
  <path class="cls-4" d="m110.9 89.3-3.9-0.9-2.5 0.7-6.8-3.4"/>
  <path class="cls-4" d="m110.9 54.4"/>
  <path class="cls-4" d="m102.6 72.8 4.3-8.9 0.1-0.9-0.1 0.6 0.9-1.7h-0.2l0.2-0.5 0.2-1.1-0.2 1v0.1l-0.2 0.9v-0.9l0.2-4"/>
  <path class="cls-4" d="m82 46.7 7.6 3.8 3.4 0.6 5.7 1.3 4.3 2.6 7.9 0.6v0.1-0.1-0.1"/>
  <path class="cls-4" d="m110.9 55.5 17.8-10.1"/>
  <path class="cls-4" d="m72 4.1v119.2"/>
</svg>
